<svg width="248" height="256" fill="none" xmlns="http://www.w3.org/2000/svg"><path d="M0 0h248v256H0V0z" fill="#1E1E27"/><path d="M0 22C0 9.85 9.85 0 22 0h204c12.15 0 22 9.85 22 22v212c0 12.15-9.85 22-22 22H22c-12.15 0-22-9.85-22-22V22z" fill="#1E1E27"/><path fill-rule="evenodd" clip-rule="evenodd" d="M151.451 116.13v31.191a5.2 5.2 0 01-5.199 5.198h-45.053A5.199 5.199 0 0196 147.321V116.13a5.2 5.2 0 015.199-5.199h9.531l1.332-3.562a5.191 5.191 0 014.861-3.369h13.592a5.191 5.191 0 014.863 3.369l1.343 3.562h9.531a5.2 5.2 0 015.199 5.199zm-14.728 15.595c0-7.178-5.819-12.997-12.997-12.997s-12.997 5.819-12.997 12.997c0 7.179 5.819 12.998 12.997 12.998 7.176-.006 12.992-5.822 12.997-12.998zm-9.349 8.807a9.529 9.529 0 005.883-8.807 9.549 9.549 0 00-9.531-9.529 9.53 9.53 0 103.648 18.336z" fill="#6F6F6F"/></svg>