<svg fill="none" height="440" viewBox="0 0 1698 440" width="1698" xmlns="http://www.w3.org/2000/svg" xmlns:xlink="http://www.w3.org/1999/xlink"><filter id="a" color-interpolation-filters="sRGB" filterUnits="userSpaceOnUse" height="617.519" width="1936.45" x="-110.227" y="-88.2921"><feFlood flood-opacity="0" result="BackgroundImageFix"/><feGaussianBlur in="BackgroundImageFix" stdDeviation="44.6133"/><feComposite in2="SourceAlpha" operator="in" result="effect1_backgroundBlur_738_950"/><feBlend in="SourceGraphic" in2="effect1_backgroundBlur_738_950" mode="normal" result="shape"/></filter><linearGradient id="b" gradientUnits="userSpaceOnUse" x1="-272.893" x2="954.238" y1="-46.5319" y2="1376.41"><stop offset=".0885417" stop-color="#0cc993"/><stop offset=".878935" stop-color="#51e1b8"/></linearGradient><rect fill="url(#b)" height="439.065" rx="22.3067" width="1758" x="-21" y=".93457"/><g filter="url(#a)"><rect fill="#fff" fill-opacity=".03" height="439.065" rx="22.3067" width="1758" x="-21" y=".93457"/></g><g clip-rule="evenodd" fill="#fff" fill-opacity=".08" fill-rule="evenodd"><path d="m681.477 138.216c73.017 77.01 143.169 150.998 465.453 147.023 295.73-3.647 483.3 9.834 590.07 33.146v99.308c0 12.32-9.99 22.307-22.31 22.307h-1713.38338c-12.31962 0-22.30662-9.987-22.30662-22.307v-394.4518c0-12.3196 9.987-22.30663 22.30666-22.30663h448.91134c131.106 31.65383 181.839 85.15983 231.259 137.28143z"/><path d="m-8.65155 3.27569c-7.32105 3.65851-12.34845 11.22511-12.34845 19.96601v394.4523c0 12.319 9.987 22.306 22.30662 22.306h1698.80338c99.65-76.352-22.17-147.681-642.69-140.027-307.748 3.796-374.735-66.854-444.458-140.389-80.175-84.5588-163.967-172.9319-621.61355-156.30831z"/></g></svg>