<svg fill="none" height="1198" viewBox="0 0 1435 1198" width="1435" xmlns="http://www.w3.org/2000/svg"><path d="m1146.99 598.829c0 174.076-143.48 315.219-320.507 315.219-177.023 0-320.502-141.143-320.502-315.219 0-174.075 143.479-315.218 320.502-315.218 177.027 0 320.507 141.143 320.507 315.218z" stroke="#383c5b" stroke-opacity=".45" stroke-width="1.8572"/><path d="m1280.84 598.389c0 247.275-203.41 447.751-454.357 447.751-250.948 0-454.358-200.476-454.358-447.751 0-247.274 203.41-447.753 454.358-447.753 250.947 0 454.357 200.479 454.357 447.753z" stroke="#7e7f8c" stroke-opacity=".45" stroke-width="1.8572"/><path d="m1434.07 598.829c0 330.199-271.81 597.901-607.146 597.901-335.332 0-607.148-267.702-607.148-597.901 0-330.198 271.816-597.900642 607.148-597.900642 335.336 0 607.146 267.702642 607.146 597.900642z" stroke="#7e7f8c" stroke-opacity=".45" stroke-width="1.8572"/><g fill="#fff"><path d="m480.732 718.032-.133.03c-5.475 2.207-8.099 8.935-7.531 16.706.067.272-.561.409-.667.145-3.176-7.201-8.628-12.167-14.618-11.874l-.133.029c-.019-.015-.032-.036-.038-.058-.005-.023-.003-.047.006-.068 0 0 0 0 .125-.143 5.475-2.207 8.06-8.927 7.512-16.702-.067-.272.561-.409.667-.145 3.157 7.206 8.647 12.163 14.637 11.87.102-.023.168.001.198.071.012.048.002.098-.025.139z"/><path d="m782.897 69.1913-.06-.0186c-2.719-.3685-5.482 1.683-7.259 4.865-.043.1222-.325.0342-.299-.0933.605-3.5474-.259-6.7298-2.689-7.9669l-.06-.0187c-.003-.0102-.003-.0212 0-.0315.004-.0102.011-.0191.02-.0255 0 0 0 0 .086-.0275 2.719.3685 5.465-1.6884 7.25-4.8677.044-.1222.326-.0341.3.0933-.614 3.5448.267 6.7325 2.697 7.9696.046.0142.066.0385.06.0728-.008.0214-.025.039-.046.049z"/><path d="m12.6898 489.746-.0598-.018c-2.71951-.369-5.48189 1.683-7.25884 4.865-.04341.122-.32569.034-.29938-.094.6051-3.547-.25922-6.729-2.68902-7.967l-.05988-.018c-.00331-.01-.00313-.022.0005-.032.00364-.01.01055-.019.01976-.025 0 0-.00001 0 .08579-.028 2.71947.369 5.46476-1.688 7.25026-4.867.04342-.123.32571-.035.29938.093-.61365 3.545.26783 6.732 2.69763 7.969.0456.015.0654.039.0596.073-.008.022-.0245.039-.046.049z"/><circle cx="416.842" cy="252.305" r="4.12488"/></g></svg>